<?xml version="1.0" encoding="utf-8"?>
<svg width="262px" height="262px" viewBox="0 0 262 262" version="1.1" xmlns:xlink="http://www.w3.org/1999/xlink" xmlns="http://www.w3.org/2000/svg">
  <defs>
    <filter filterUnits="userSpaceOnUse" color-interpolation-filters="sRGB" id="filter_1">
      <feFlood flood-opacity="0" result="BackgroundImageFix" />
      <feColorMatrix in="SourceAlpha" type="matrix" values="0 0 0 0 0 0 0 0 0 0 0 0 0 0 0 0 0 0 128 0" />
      <feOffset dx="0" dy="2" />
      <feGaussianBlur stdDeviation="2" />
      <feColorMatrix type="matrix" values="0 0 0 0 0.39215687 0 0 0 0 0.39215687 0 0 0 0 0.39215687 0 0 0 0.49803922 0" />
      <feBlend mode="normal" in2="BackgroundImageFix" result="effect0_dropShadow" />
      <feBlend mode="normal" in="SourceGraphic" in2="effect0_dropShadow" result="shape" />
    </filter>
    <path d="M204 0C229.409 0 250 20.5914 250 46L250 204C250 229.409 229.409 250 204 250L46 250C20.5914 250 0 229.409 0 204L0 46C0 20.5914 20.5914 0 46 0L204 0Z" id="path_1" />
    <path d="M146.065 0L146.065 0L146.065 128.27L0 128.27L0 0L146.065 0L146.065 0L146.065 0Z" id="path_2" />
    <clipPath id="clip_1">
      <use xlink:href="#path_1" clip-rule="evenodd" fill-rule="evenodd" />
    </clipPath>
    <clipPath id="clip_2">
      <use xlink:href="#path_2" clip-rule="evenodd" fill-rule="evenodd" />
    </clipPath>
  </defs>
  <g id="Medium Rectangle" filter="url(#filter_1)">
    <path d="M204 0C229.409 0 250 20.5914 250 46L250 204C250 229.409 229.409 250 204 250L46 250C20.5914 250 0 229.409 0 204L0 46C0 20.5914 20.5914 0 46 0L204 0Z" id="Medium-Rectangle" fill="#FFFFFF" stroke="none" transform="translate(6 4)" />
    <g id="Group" clip-path="url(#clip_1)" transform="translate(6 4), translate(47 61)">
      <path d="M93.1552 125.126C91.1385 125.126 89.359 124.756 87.8168 124.014C86.2746 123.273 85.0586 122.242 84.1689 120.922C83.2791 119.602 82.8343 118.053 82.8343 116.273L82.8343 112.047C82.8343 110.475 83.2569 109.037 84.1021 107.732C84.9474 106.427 86.067 105.382 87.4609 104.596C88.8548 103.81 90.397 103.417 92.0875 103.417C93.689 103.417 95.1571 103.765 96.4917 104.462C97.8263 105.159 98.9014 106.13 99.717 107.376C100.533 108.622 100.94 110.045 100.94 111.647C100.94 112.892 100.748 113.782 100.362 114.316C99.9765 114.85 99.4723 115.176 98.8495 115.295C98.2267 115.413 97.5742 115.473 96.8921 115.473L87.5054 115.473L87.5054 116.496C87.5054 117.979 88.0466 119.158 89.1291 120.033C90.2116 120.907 91.5981 121.345 93.2886 121.345C94.3267 121.345 95.1719 121.197 95.8244 120.9C96.4769 120.603 97.0255 120.322 97.4704 120.055C97.9153 119.788 98.3305 119.654 98.716 119.654C99.1016 119.654 99.4278 119.773 99.6947 120.01C99.9616 120.248 100.169 120.529 100.318 120.856C100.466 121.182 100.54 121.478 100.54 121.745C100.54 122.19 100.236 122.679 99.628 123.213C99.02 123.747 98.1674 124.199 97.07 124.57C95.9727 124.941 94.6677 125.126 93.1552 125.126L93.1552 125.126L93.1552 125.126ZM87.5054 112.581L94.8902 112.581C95.5426 112.581 95.9801 112.492 96.2025 112.314C96.425 112.136 96.5362 111.78 96.5362 111.246C96.5362 110.475 96.3434 109.756 95.9579 109.089C95.5723 108.421 95.0385 107.902 94.3563 107.532C93.6742 107.161 92.9031 106.976 92.043 106.976C91.2126 106.976 90.4563 107.154 89.7742 107.509C89.0921 107.865 88.5434 108.355 88.1282 108.978C87.713 109.6 87.5054 110.327 87.5054 111.157L87.5054 112.581L87.5054 112.581L87.5054 112.581ZM107.035 124.77C106.383 124.77 105.841 124.607 105.411 124.281C104.981 123.955 104.766 123.599 104.766 123.213L104.766 105.196C104.766 104.751 104.981 104.388 105.411 104.106C105.841 103.825 106.383 103.684 107.035 103.684C107.628 103.684 108.132 103.825 108.548 104.106C108.963 104.388 109.17 104.751 109.17 105.196L109.17 107.154C109.497 106.531 109.934 105.938 110.483 105.374C111.031 104.811 111.676 104.344 112.418 103.973C113.159 103.602 113.96 103.417 114.82 103.417L116.244 103.417C116.718 103.417 117.134 103.617 117.489 104.017C117.845 104.418 118.023 104.9 118.023 105.463C118.023 106.027 117.845 106.516 117.489 106.931C117.134 107.346 116.718 107.554 116.244 107.554L114.82 107.554C113.93 107.554 113.07 107.821 112.24 108.355C111.41 108.889 110.735 109.637 110.216 110.601C109.697 111.565 109.437 112.729 109.437 114.094L109.437 123.213C109.437 123.599 109.207 123.955 108.748 124.281C108.288 124.607 107.717 124.77 107.035 124.77L107.035 124.77L107.035 124.77ZM131.28 125.126C129.886 125.126 128.633 124.778 127.521 124.081C126.409 123.384 125.616 122.576 125.141 121.656L125.141 123.213C125.141 123.599 124.934 123.955 124.518 124.281C124.103 124.607 123.599 124.77 123.006 124.77C122.353 124.77 121.812 124.607 121.382 124.281C120.952 123.955 120.737 123.599 120.737 123.213L120.737 92.651C120.737 92.2061 120.952 91.8428 121.382 91.5611C121.812 91.2793 122.353 91.1384 123.006 91.1384C123.688 91.1384 124.259 91.2793 124.719 91.5611C125.178 91.8428 125.408 92.2061 125.408 92.651L125.408 106.798C125.883 105.938 126.609 105.159 127.588 104.462C128.567 103.765 129.753 103.417 131.147 103.417C132.6 103.417 133.927 103.81 135.128 104.596C136.33 105.382 137.293 106.434 138.02 107.754C138.747 109.074 139.11 110.549 139.11 112.181L139.11 116.273C139.11 117.816 138.747 119.261 138.02 120.611C137.293 121.96 136.337 123.05 135.151 123.881C133.964 124.711 132.674 125.126 131.28 125.126L131.28 125.126L131.28 125.126ZM129.946 120.989C130.746 120.989 131.488 120.767 132.17 120.322C132.852 119.877 133.401 119.284 133.816 118.542C134.231 117.801 134.439 117.045 134.439 116.273L134.439 112.181C134.439 111.41 134.231 110.668 133.816 109.956C133.401 109.245 132.852 108.666 132.17 108.221C131.488 107.776 130.732 107.554 129.901 107.554C129.16 107.554 128.448 107.739 127.766 108.11C127.084 108.481 126.52 109.007 126.075 109.689C125.631 110.372 125.408 111.202 125.408 112.181L125.408 117.297C125.408 117.653 125.608 118.12 126.009 118.698C126.409 119.276 126.95 119.803 127.632 120.277C128.315 120.752 129.086 120.989 129.946 120.989L129.946 120.989L129.946 120.989ZM149.653 125.126C148.2 125.126 146.895 124.948 145.738 124.592C144.582 124.236 143.67 123.784 143.003 123.236C142.335 122.687 142.002 122.131 142.002 121.567C142.002 121.3 142.068 121.004 142.202 120.678C142.335 120.351 142.528 120.07 142.78 119.832C143.032 119.595 143.307 119.476 143.603 119.476C143.989 119.476 144.396 119.647 144.826 119.988C145.257 120.329 145.827 120.67 146.539 121.011C147.251 121.352 148.245 121.523 149.52 121.523C151.003 121.523 152.004 121.271 152.523 120.767C153.042 120.262 153.301 119.714 153.301 119.121C153.301 118.349 153.042 117.749 152.523 117.319C152.004 116.889 151.336 116.54 150.521 116.273C149.705 116.006 148.838 115.747 147.918 115.495C146.999 115.243 146.131 114.909 145.316 114.494C144.5 114.079 143.833 113.5 143.314 112.759C142.795 112.017 142.535 111.039 142.535 109.823C142.535 108.814 142.787 107.814 143.292 106.82C143.796 105.826 144.604 105.011 145.716 104.373C146.828 103.736 148.319 103.417 150.187 103.417C151.314 103.417 152.382 103.535 153.39 103.773C154.399 104.01 155.229 104.329 155.881 104.729C156.534 105.129 156.86 105.567 156.86 106.041C156.86 106.249 156.786 106.538 156.638 106.909C156.489 107.28 156.289 107.606 156.037 107.888C155.785 108.169 155.466 108.31 155.081 108.31C154.784 108.31 154.413 108.199 153.969 107.977C153.524 107.754 153.005 107.539 152.411 107.332C151.818 107.124 151.092 107.02 150.232 107.02C149.372 107.02 148.682 107.161 148.163 107.443C147.644 107.725 147.266 108.058 147.029 108.444C146.791 108.829 146.673 109.215 146.673 109.6C146.673 110.253 146.925 110.757 147.429 111.113C147.933 111.469 148.6 111.765 149.431 112.003C150.261 112.24 151.136 112.485 152.056 112.737C152.975 112.989 153.842 113.352 154.658 113.827C155.474 114.301 156.141 114.939 156.66 115.74C157.179 116.54 157.438 117.608 157.438 118.943C157.438 120.811 156.764 122.309 155.414 123.436C154.065 124.563 152.145 125.126 149.653 125.126L149.653 125.126L149.653 125.126Z" id="78145" fill="#000000" fill-rule="evenodd" stroke="none" />
      <g id="Mask-Group">
        <path d="M146.065 0L146.065 0L146.065 128.27L0 128.27L0 0L146.065 0L146.065 0L146.065 0Z" id="path_1#1" fill="none" fill-rule="evenodd" stroke="none" />
        <g id="Mask-Group">
          <path d="M146.065 0L146.065 0L146.065 128.27L0 128.27L0 0L146.065 0L146.065 0L146.065 0Z" id="path_2" fill="none" fill-rule="evenodd" stroke="none" />
          <g clip-path="url(#clip_2)">
            <g id="Group">
              <g id="icon_app">
                <path d="M146.065 0L146.065 0L146.065 128.27L0 128.27L0 0L146.065 0L146.065 0L146.065 0Z" id="icon_app#1" fill="none" fill-rule="evenodd" stroke="none" />
                <path d="M119.153 63.9111C121.268 63.9111 122.808 64.3708 123.773 65.2902C124.738 66.2096 125.221 67.4048 125.221 68.8759C125.221 71.2663 124.509 73.3809 123.083 75.2197C121.658 77.0584 119.429 78.0238 116.395 78.1158C109.04 78.2996 102.512 77.748 96.8119 76.4608C90.2842 90.1598 82.4004 101.537 73.1606 110.593C63.9207 119.649 54.6578 124.177 45.372 124.177C35.8103 124.177 28.685 118.615 23.9961 107.49C19.3072 96.3657 16.9628 81.3336 16.9628 62.3941C16.9628 46.2128 18.112 31.6864 20.4105 18.8149C21.2379 14.0341 22.4102 10.7932 23.9272 9.09236C25.4442 7.39148 28.0414 6.54104 31.719 6.54104C37.787 6.54104 40.821 9.16131 40.821 14.4019C40.821 14.9535 40.729 15.9648 40.5452 17.4358C37.787 33.9849 36.4079 48.971 36.4079 62.3941C36.4079 76.4608 37.5801 87.1488 39.9246 94.458C42.269 101.767 45.7857 105.422 50.4746 105.422C55.2554 105.422 60.45 102.112 66.0583 95.4923C71.6665 88.8726 76.8151 80.5521 81.504 70.5308C75.8957 67.0371 71.6665 62.5091 68.8164 56.9467C65.9663 51.3844 64.5413 44.9716 64.5413 37.7085C64.5413 30.4453 65.6675 24.3083 67.92 19.2976C70.1725 14.2869 73.2525 10.5404 77.1599 8.05804C81.0673 5.57568 85.4114 4.3345 90.1923 4.3345C96.0764 4.3345 100.742 6.44911 104.19 10.6783C107.638 14.9075 109.362 20.6997 109.362 28.0548C109.362 38.6278 107.063 50.1662 102.466 62.67C107.339 63.4974 112.901 63.9111 119.153 63.9111L119.153 63.9111L119.153 63.9111L119.153 63.9111ZM78.47 36.7431C78.47 45.7531 81.3661 52.4187 87.1583 56.7399C90.7439 46.4427 92.5367 37.9383 92.5367 31.2267C92.5367 27.3653 92.0311 24.5381 91.0197 22.7453C90.0084 20.9525 88.6293 20.0561 86.8825 20.0561C84.4001 20.0561 82.3774 21.5041 80.8145 24.4002C79.2515 27.2963 78.47 31.4106 78.47 36.7431L78.47 36.7431L78.47 36.7431L78.47 36.7431Z" id="V-" fill="#000000" fill-rule="evenodd" stroke="none" />
              </g>
            </g>
          </g>
        </g>
      </g>
    </g>
  </g>
</svg>